<svg id="screenshot" viewBox="0 0 40 40" width="40" height="40" version="1.1" xmlns:xlink="http://www.w3.org/1999/xlink" xmlns="http://www.w3.org/2000/svg"><g id="shape-ace8cbb0-b244-11eb-9f24-db3cb6b7a8b8"><g height="40" width="40"><g id="shape-aceac780-b244-11eb-9f24-db3cb6b7a8b8"><path d="M0,0L0,40L40,40L40,0L0,0ZZM2.9279999999999973,2.9320000000000164L37.072,2.9320000000000164L37.072,37.067999999999984L2.9279999999999973,37.067999999999984L2.9279999999999973,2.9320000000000164ZZM9.725999999999999,8.3599999999999L9.725999999999999,11.990999999999985L6.096000000000004,11.990999999999985L6.096000000000004,15.482999999999947L9.725999999999999,15.482999999999947L9.725999999999999,19.114000000000033L13.21799999999999,19.114000000000033L13.21799999999999,15.483999999999924L16.84899999999999,15.483999999999924L16.84899999999999,11.990000000000009L13.218999999999994,11.990000000000009L13.218999999999994,8.3599999999999L9.724999999999994,8.3599999999999ZM27.325999999999993,8.3599999999999L27.325999999999993,11.990999999999985L23.695999999999998,11.990999999999985L23.695999999999998,15.482999999999947L27.325999999999993,15.482999999999947L27.325999999999993,19.114000000000033L30.818000000000012,19.114000000000033L30.818000000000012,15.483999999999924L34.44900000000001,15.483999999999924L34.44900000000001,11.990000000000009L30.81899999999999,11.990000000000009L30.81899999999999,8.3599999999999L27.325999999999993,8.3599999999999ZZM30.195999999999998,26.391000000000076L9.84299999999999,26.391000000000076L9.84299999999999,29.270999999999958L7.1229999999999905,29.270999999999958L7.1229999999999905,32.2829999999999L12.556999999999988,32.2829999999999L12.556999999999988,29.40300000000002L27.442999999999984,29.40300000000002L27.442999999999984,32.2829999999999L32.87700000000001,32.2829999999999L32.87700000000001,29.270999999999958L30.197000000000003,29.270999999999958L30.197000000000003,26.391000000000076Z"/></g></g></g></svg>